<?xml version="1.0" encoding="iso-8859-1"?>
<svg height="800px" width="800px" version="1.1" id="Layer_1" xmlns="http://www.w3.org/2000/svg" xmlns:xlink="http://www.w3.org/1999/xlink" 
	 viewBox="0 0 512 512" xml:space="preserve">
	<circle style="fill:#FFEC97;" cx="255.996" cy="255.997" r="255.996"/>
	<path style="fill:#FFDB2D;" d="M512,256c0-13.416-1.038-26.59-3.027-39.45l-173.3-173.3L255.999,83.1l-79.673-39.85l46.742,91.501
		h-46.742l53.409,90.311c-37.234,2.874-66.817,34.218-66.817,72.156v99.135c0,21.063,9.12,40.095,23.601,53.355l62.18,62.18
		c2.426,0.068,4.859,0.11,7.302,0.11C397.385,512,512,397.385,512,256z"/>
	<polygon style="fill:#00A652;" points="335.673,43.25 255.999,83.1 176.327,43.25 223.068,134.752 176.327,134.752 232.183,229.201 
		279.817,229.201 335.673,134.752 288.931,134.752 "/>
	<polygon style="fill:#008C49;" points="335.673,43.25 255.999,83.1 255.996,83.098 255.996,229.201 279.817,229.201 
		335.673,134.752 288.931,134.752 "/>
	<path style="fill:#FF9A00;" d="M276.686,468.751h-41.373c-39.817,0-72.395-32.577-72.395-72.395v-99.135
		c0-39.817,32.577-72.395,72.395-72.395h41.373c39.817,0,72.395,32.577,72.395,72.395v99.135
		C349.081,436.172,316.503,468.751,276.686,468.751z"/>
	<path style="fill:#FF8800;" d="M276.686,224.825h-20.69V468.75h20.69c39.817,0,72.395-32.577,72.395-72.395V297.22
		C349.081,257.403,316.503,224.825,276.686,224.825z"/>
	<path style="fill:#E67500;" d="M341.646,333.493l-29.522-29.522l32.27-32.27c-2.349-6.184-5.52-11.968-9.384-17.219l-36.187,36.187
		l-29.522-29.522l31.987-31.987c-7.012-2.555-14.525-4.033-22.335-4.278L256,247.845l-22.953-22.962
		c-7.811,0.243-15.323,1.723-22.335,4.278l31.987,31.987l-29.522,29.522l-36.187-36.187c-3.864,5.251-7.035,11.035-9.384,17.219
		l32.27,32.27l-29.522,29.522l-7.434-7.434v41.461l7.434-7.434l29.522,29.522l-32.269,32.269c2.349,6.184,5.52,11.968,9.384,17.219
		l36.186-36.186l29.522,29.522l-31.985,31.985c7.01,2.553,14.519,4.032,22.327,4.277l22.96-22.96l22.96,22.96
		c7.807-0.245,15.317-1.724,22.327-4.277l-31.985-31.985l29.522-29.522l36.186,36.186c3.864-5.251,7.035-11.035,9.384-17.219
		l-32.269-32.269l29.522-29.522l7.434,7.434v-41.461L341.646,333.493z M255.999,274.448l29.522,29.522l-29.522,29.522l-29.522-29.522
		L255.999,274.448z M183.654,346.794l29.522-29.522l29.522,29.522l-29.522,29.512L183.654,346.794z M255.999,419.129l-29.522-29.522
		l0,0l29.522-29.522l29.522,29.522l0,0L255.999,419.129z M298.823,376.306l-29.522-29.512l29.522-29.522l29.522,29.522
		L298.823,376.306z"/>
	<path style="fill:#C06100;" d="M349.081,367.519v-41.461l-7.434,7.434l-29.522-29.522l32.27-32.27
		c-2.349-6.184-5.52-11.968-9.384-17.219l-36.187,36.187l-29.522-29.522l31.987-31.987c-7.012-2.555-14.525-4.033-22.335-4.278
		L256,247.845l-0.003-0.002v26.61l0.003-0.003l29.522,29.522l-29.522,29.522l-0.003-0.004v26.599l0.003-0.003l29.522,29.522l0,0
		l-29.522,29.522l-0.003-0.003v26.609l0.003-0.003l22.96,22.96c7.807-0.245,15.317-1.724,22.327-4.277l-31.985-31.985l29.522-29.522
		l36.186,36.186c3.864-5.251,7.035-11.035,9.384-17.219l-32.269-32.269l29.522-29.522L349.081,367.519z M298.823,376.306
		l-29.522-29.512l29.522-29.522l29.522,29.522L298.823,376.306z"/>
</svg>